<svg width="168" height="336" viewBox="0 0 168 336" fill="none" xmlns="http://www.w3.org/2000/svg">
<circle cx="147" cy="7" r="1" fill="#F2F2F2" fill-opacity="0.8"/>
<circle cx="133" cy="7" r="1" fill="#F2F2F2" fill-opacity="0.8"/>
<circle cx="147" cy="21" r="1" fill="#F2F2F2" fill-opacity="0.8"/>
<circle cx="147" cy="35" r="1" fill="#F2F2F2" fill-opacity="0.8"/>
<circle cx="133" cy="21" r="1" fill="#F2F2F2" fill-opacity="0.8"/>
<circle cx="133" cy="35" r="1" fill="#F2F2F2" fill-opacity="0.8"/>
<circle cx="161" cy="7" r="1" fill="#F2F2F2" fill-opacity="0.8"/>
<circle cx="161" cy="21" r="1" fill="#F2F2F2" fill-opacity="0.8"/>
<circle cx="161" cy="35" r="1" fill="#F2F2F2" fill-opacity="0.8"/>
<circle cx="63" cy="7" r="1" fill="#F2F2F2" fill-opacity="0.8"/>
<circle cx="49" cy="7" r="1" fill="#F2F2F2" fill-opacity="0.8"/>
<circle cx="63" cy="21" r="1" fill="#F2F2F2" fill-opacity="0.8"/>
<circle cx="63" cy="35" r="1" fill="#F2F2F2" fill-opacity="0.8"/>
<circle cx="49" cy="21" r="1" fill="#F2F2F2" fill-opacity="0.8"/>
<circle cx="49" cy="35" r="1" fill="#F2F2F2" fill-opacity="0.8"/>
<circle cx="77" cy="7" r="1" fill="#F2F2F2" fill-opacity="0.8"/>
<circle cx="77" cy="21" r="1" fill="#F2F2F2" fill-opacity="0.8"/>
<circle cx="77" cy="35" r="1" fill="#F2F2F2" fill-opacity="0.8"/>
<circle cx="147" cy="91" r="1" fill="#F2F2F2" fill-opacity="0.8"/>
<circle cx="133" cy="91" r="1" fill="#F2F2F2" fill-opacity="0.8"/>
<circle cx="147" cy="105" r="1" fill="#F2F2F2" fill-opacity="0.8"/>
<circle cx="147" cy="119" r="1" fill="#F2F2F2" fill-opacity="0.8"/>
<circle cx="133" cy="105" r="1" fill="#F2F2F2" fill-opacity="0.8"/>
<circle cx="133" cy="119" r="1" fill="#F2F2F2" fill-opacity="0.8"/>
<circle cx="161" cy="91" r="1" fill="#F2F2F2" fill-opacity="0.8"/>
<circle cx="161" cy="105" r="1" fill="#F2F2F2" fill-opacity="0.8"/>
<circle cx="161" cy="119" r="1" fill="#F2F2F2" fill-opacity="0.8"/>
<circle cx="63" cy="91" r="1" fill="#F2F2F2" fill-opacity="0.8"/>
<circle cx="49" cy="91" r="1" fill="#F2F2F2" fill-opacity="0.8"/>
<circle cx="63" cy="105" r="1" fill="#F2F2F2" fill-opacity="0.8"/>
<circle cx="63" cy="119" r="1" fill="#F2F2F2" fill-opacity="0.8"/>
<circle cx="49" cy="105" r="1" fill="#F2F2F2" fill-opacity="0.8"/>
<circle cx="49" cy="119" r="1" fill="#F2F2F2" fill-opacity="0.8"/>
<circle cx="77" cy="91" r="1" fill="#F2F2F2" fill-opacity="0.8"/>
<circle cx="77" cy="105" r="1" fill="#F2F2F2" fill-opacity="0.8"/>
<circle cx="77" cy="119" r="1" fill="#F2F2F2" fill-opacity="0.8"/>
<circle cx="147" cy="49" r="1" fill="#F2F2F2" fill-opacity="0.8"/>
<circle cx="133" cy="49" r="1" fill="#F2F2F2" fill-opacity="0.8"/>
<circle cx="147" cy="63" r="1" fill="#F2F2F2" fill-opacity="0.8"/>
<circle cx="147" cy="77" r="1" fill="#F2F2F2" fill-opacity="0.8"/>
<circle cx="133" cy="63" r="1" fill="#F2F2F2" fill-opacity="0.8"/>
<circle cx="133" cy="77" r="1" fill="#F2F2F2" fill-opacity="0.8"/>
<circle cx="161" cy="49" r="1" fill="#F2F2F2" fill-opacity="0.8"/>
<circle cx="161" cy="63" r="1" fill="#F2F2F2" fill-opacity="0.8"/>
<circle cx="161" cy="77" r="1" fill="#F2F2F2" fill-opacity="0.8"/>
<circle cx="63" cy="49" r="1" fill="#F2F2F2" fill-opacity="0.8"/>
<circle cx="49" cy="49" r="1" fill="#F2F2F2" fill-opacity="0.8"/>
<circle cx="63" cy="63" r="1" fill="#F2F2F2" fill-opacity="0.8"/>
<circle cx="63" cy="77" r="1" fill="#F2F2F2" fill-opacity="0.8"/>
<circle cx="49" cy="63" r="1" fill="#F2F2F2" fill-opacity="0.8"/>
<circle cx="49" cy="77" r="1" fill="#F2F2F2" fill-opacity="0.8"/>
<circle cx="77" cy="49" r="1" fill="#F2F2F2" fill-opacity="0.8"/>
<circle cx="77" cy="63" r="1" fill="#F2F2F2" fill-opacity="0.8"/>
<circle cx="77" cy="77" r="1" fill="#F2F2F2" fill-opacity="0.8"/>
<circle cx="147" cy="133" r="1" fill="#F2F2F2" fill-opacity="0.8"/>
<circle cx="133" cy="133" r="1" fill="#F2F2F2" fill-opacity="0.8"/>
<circle cx="147" cy="147" r="1" fill="#F2F2F2" fill-opacity="0.8"/>
<circle cx="147" cy="161" r="1" fill="#F2F2F2" fill-opacity="0.8"/>
<circle cx="133" cy="147" r="1" fill="#F2F2F2" fill-opacity="0.8"/>
<circle cx="133" cy="161" r="1" fill="#F2F2F2" fill-opacity="0.8"/>
<circle cx="161" cy="133" r="1" fill="#F2F2F2" fill-opacity="0.8"/>
<circle cx="161" cy="147" r="1" fill="#F2F2F2" fill-opacity="0.8"/>
<circle cx="161" cy="161" r="1" fill="#F2F2F2" fill-opacity="0.8"/>
<circle cx="63" cy="133" r="1" fill="#F2F2F2" fill-opacity="0.8"/>
<circle cx="49" cy="133" r="1" fill="#F2F2F2" fill-opacity="0.8"/>
<circle cx="63" cy="147" r="1" fill="#F2F2F2" fill-opacity="0.8"/>
<circle cx="63" cy="161" r="1" fill="#F2F2F2" fill-opacity="0.8"/>
<circle cx="49" cy="147" r="1" fill="#F2F2F2" fill-opacity="0.8"/>
<circle cx="49" cy="161" r="1" fill="#F2F2F2" fill-opacity="0.8"/>
<circle cx="77" cy="133" r="1" fill="#F2F2F2" fill-opacity="0.8"/>
<circle cx="77" cy="147" r="1" fill="#F2F2F2" fill-opacity="0.8"/>
<circle cx="77" cy="161" r="1" fill="#F2F2F2" fill-opacity="0.8"/>
<circle cx="105" cy="7" r="1" fill="#F2F2F2" fill-opacity="0.8"/>
<circle cx="91" cy="7" r="1" fill="#F2F2F2" fill-opacity="0.8"/>
<circle cx="105" cy="21" r="1" fill="#F2F2F2" fill-opacity="0.8"/>
<circle cx="105" cy="35" r="1" fill="#F2F2F2" fill-opacity="0.8"/>
<circle cx="91" cy="21" r="1" fill="#F2F2F2" fill-opacity="0.8"/>
<circle cx="91" cy="35" r="1" fill="#F2F2F2" fill-opacity="0.8"/>
<circle cx="119" cy="7" r="1" fill="#F2F2F2" fill-opacity="0.8"/>
<circle cx="119" cy="21" r="1" fill="#F2F2F2" fill-opacity="0.8"/>
<circle cx="119" cy="35" r="1" fill="#F2F2F2" fill-opacity="0.8"/>
<circle cx="21" cy="7" r="1" fill="#F2F2F2" fill-opacity="0.8"/>
<circle cx="7" cy="7" r="1" fill="#F2F2F2" fill-opacity="0.8"/>
<circle cx="21" cy="21" r="1" fill="#F2F2F2" fill-opacity="0.8"/>
<circle cx="21" cy="35" r="1" fill="#F2F2F2" fill-opacity="0.8"/>
<circle cx="7" cy="21" r="1" fill="#F2F2F2" fill-opacity="0.8"/>
<circle cx="7" cy="35" r="1" fill="#F2F2F2" fill-opacity="0.8"/>
<circle cx="35" cy="7" r="1" fill="#F2F2F2" fill-opacity="0.8"/>
<circle cx="35" cy="21" r="1" fill="#F2F2F2" fill-opacity="0.8"/>
<circle cx="35" cy="35" r="1" fill="#F2F2F2" fill-opacity="0.8"/>
<circle cx="105" cy="91" r="1" fill="#F2F2F2" fill-opacity="0.8"/>
<circle cx="91" cy="91" r="1" fill="#F2F2F2" fill-opacity="0.8"/>
<circle cx="105" cy="105" r="1" fill="#F2F2F2" fill-opacity="0.8"/>
<circle cx="105" cy="119" r="1" fill="#F2F2F2" fill-opacity="0.8"/>
<circle cx="91" cy="105" r="1" fill="#F2F2F2" fill-opacity="0.8"/>
<circle cx="91" cy="119" r="1" fill="#F2F2F2" fill-opacity="0.8"/>
<circle cx="119" cy="91" r="1" fill="#F2F2F2" fill-opacity="0.8"/>
<circle cx="119" cy="105" r="1" fill="#F2F2F2" fill-opacity="0.8"/>
<circle cx="119" cy="119" r="1" fill="#F2F2F2" fill-opacity="0.8"/>
<circle cx="21" cy="91" r="1" fill="#F2F2F2" fill-opacity="0.8"/>
<circle cx="7" cy="91" r="1" fill="#F2F2F2" fill-opacity="0.8"/>
<circle cx="21" cy="105" r="1" fill="#F2F2F2" fill-opacity="0.8"/>
<circle cx="21" cy="119" r="1" fill="#F2F2F2" fill-opacity="0.8"/>
<circle cx="7" cy="105" r="1" fill="#F2F2F2" fill-opacity="0.8"/>
<circle cx="7" cy="119" r="1" fill="#F2F2F2" fill-opacity="0.8"/>
<circle cx="35" cy="91" r="1" fill="#F2F2F2" fill-opacity="0.8"/>
<circle cx="35" cy="105" r="1" fill="#F2F2F2" fill-opacity="0.8"/>
<circle cx="35" cy="119" r="1" fill="#F2F2F2" fill-opacity="0.8"/>
<circle cx="105" cy="49" r="1" fill="#F2F2F2" fill-opacity="0.8"/>
<circle cx="91" cy="49" r="1" fill="#F2F2F2" fill-opacity="0.8"/>
<circle cx="105" cy="63" r="1" fill="#F2F2F2" fill-opacity="0.8"/>
<circle cx="105" cy="77" r="1" fill="#F2F2F2" fill-opacity="0.8"/>
<circle cx="91" cy="63" r="1" fill="#F2F2F2" fill-opacity="0.8"/>
<circle cx="91" cy="77" r="1" fill="#F2F2F2" fill-opacity="0.8"/>
<circle cx="119" cy="49" r="1" fill="#F2F2F2" fill-opacity="0.8"/>
<circle cx="119" cy="63" r="1" fill="#F2F2F2" fill-opacity="0.8"/>
<circle cx="119" cy="77" r="1" fill="#F2F2F2" fill-opacity="0.8"/>
<circle cx="21" cy="49" r="1" fill="#F2F2F2" fill-opacity="0.8"/>
<circle cx="7" cy="49" r="1" fill="#F2F2F2" fill-opacity="0.8"/>
<circle cx="21" cy="63" r="1" fill="#F2F2F2" fill-opacity="0.8"/>
<circle cx="21" cy="77" r="1" fill="#F2F2F2" fill-opacity="0.8"/>
<circle cx="7" cy="63" r="1" fill="#F2F2F2" fill-opacity="0.8"/>
<circle cx="7" cy="77" r="1" fill="#F2F2F2" fill-opacity="0.8"/>
<circle cx="35" cy="49" r="1" fill="#F2F2F2" fill-opacity="0.8"/>
<circle cx="35" cy="63" r="1" fill="#F2F2F2" fill-opacity="0.8"/>
<circle cx="35" cy="77" r="1" fill="#F2F2F2" fill-opacity="0.8"/>
<circle cx="105" cy="133" r="1" fill="#F2F2F2" fill-opacity="0.8"/>
<circle cx="91" cy="133" r="1" fill="#F2F2F2" fill-opacity="0.8"/>
<circle cx="105" cy="147" r="1" fill="#F2F2F2" fill-opacity="0.8"/>
<circle cx="105" cy="161" r="1" fill="#F2F2F2" fill-opacity="0.8"/>
<circle cx="91" cy="147" r="1" fill="#F2F2F2" fill-opacity="0.8"/>
<circle cx="91" cy="161" r="1" fill="#F2F2F2" fill-opacity="0.8"/>
<circle cx="119" cy="133" r="1" fill="#F2F2F2" fill-opacity="0.8"/>
<circle cx="119" cy="147" r="1" fill="#F2F2F2" fill-opacity="0.8"/>
<circle cx="119" cy="161" r="1" fill="#F2F2F2" fill-opacity="0.8"/>
<circle cx="21" cy="133" r="1" fill="#F2F2F2" fill-opacity="0.8"/>
<circle cx="7" cy="133" r="1" fill="#F2F2F2" fill-opacity="0.8"/>
<circle cx="21" cy="147" r="1" fill="#F2F2F2" fill-opacity="0.8"/>
<circle cx="21" cy="161" r="1" fill="#F2F2F2" fill-opacity="0.8"/>
<circle cx="7" cy="147" r="1" fill="#F2F2F2" fill-opacity="0.8"/>
<circle cx="7" cy="161" r="1" fill="#F2F2F2" fill-opacity="0.8"/>
<circle cx="35" cy="133" r="1" fill="#F2F2F2" fill-opacity="0.8"/>
<circle cx="35" cy="147" r="1" fill="#F2F2F2" fill-opacity="0.8"/>
<circle cx="35" cy="161" r="1" fill="#F2F2F2" fill-opacity="0.8"/>
<circle cx="147" cy="175" r="1" fill="#F2F2F2" fill-opacity="0.8"/>
<circle cx="133" cy="175" r="1" fill="#F2F2F2" fill-opacity="0.8"/>
<circle cx="147" cy="189" r="1" fill="#F2F2F2" fill-opacity="0.8"/>
<circle cx="147" cy="203" r="1" fill="#F2F2F2" fill-opacity="0.8"/>
<circle cx="133" cy="189" r="1" fill="#F2F2F2" fill-opacity="0.8"/>
<circle cx="133" cy="203" r="1" fill="#F2F2F2" fill-opacity="0.8"/>
<circle cx="161" cy="175" r="1" fill="#F2F2F2" fill-opacity="0.8"/>
<circle cx="161" cy="189" r="1" fill="#F2F2F2" fill-opacity="0.8"/>
<circle cx="161" cy="203" r="1" fill="#F2F2F2" fill-opacity="0.8"/>
<circle cx="63" cy="175" r="1" fill="#F2F2F2" fill-opacity="0.8"/>
<circle cx="49" cy="175" r="1" fill="#F2F2F2" fill-opacity="0.8"/>
<circle cx="63" cy="189" r="1" fill="#F2F2F2" fill-opacity="0.8"/>
<circle cx="63" cy="203" r="1" fill="#F2F2F2" fill-opacity="0.8"/>
<circle cx="49" cy="189" r="1" fill="#F2F2F2" fill-opacity="0.8"/>
<circle cx="49" cy="203" r="1" fill="#F2F2F2" fill-opacity="0.8"/>
<circle cx="77" cy="175" r="1" fill="#F2F2F2" fill-opacity="0.8"/>
<circle cx="77" cy="189" r="1" fill="#F2F2F2" fill-opacity="0.8"/>
<circle cx="77" cy="203" r="1" fill="#F2F2F2" fill-opacity="0.8"/>
<circle cx="147" cy="259" r="1" fill="#F2F2F2" fill-opacity="0.8"/>
<circle cx="133" cy="259" r="1" fill="#F2F2F2" fill-opacity="0.8"/>
<circle cx="147" cy="273" r="1" fill="#F2F2F2" fill-opacity="0.8"/>
<circle cx="147" cy="287" r="1" fill="#F2F2F2" fill-opacity="0.8"/>
<circle cx="133" cy="273" r="1" fill="#F2F2F2" fill-opacity="0.8"/>
<circle cx="133" cy="287" r="1" fill="#F2F2F2" fill-opacity="0.8"/>
<circle cx="161" cy="259" r="1" fill="#F2F2F2" fill-opacity="0.8"/>
<circle cx="161" cy="273" r="1" fill="#F2F2F2" fill-opacity="0.8"/>
<circle cx="161" cy="287" r="1" fill="#F2F2F2" fill-opacity="0.8"/>
<circle cx="63" cy="259" r="1" fill="#F2F2F2" fill-opacity="0.8"/>
<circle cx="49" cy="259" r="1" fill="#F2F2F2" fill-opacity="0.8"/>
<circle cx="63" cy="273" r="1" fill="#F2F2F2" fill-opacity="0.8"/>
<circle cx="63" cy="287" r="1" fill="#F2F2F2" fill-opacity="0.8"/>
<circle cx="49" cy="273" r="1" fill="#F2F2F2" fill-opacity="0.8"/>
<circle cx="49" cy="287" r="1" fill="#F2F2F2" fill-opacity="0.8"/>
<circle cx="77" cy="259" r="1" fill="#F2F2F2" fill-opacity="0.8"/>
<circle cx="77" cy="273" r="1" fill="#F2F2F2" fill-opacity="0.8"/>
<circle cx="77" cy="287" r="1" fill="#F2F2F2" fill-opacity="0.8"/>
<circle cx="147" cy="217" r="1" fill="#F2F2F2" fill-opacity="0.8"/>
<circle cx="133" cy="217" r="1" fill="#F2F2F2" fill-opacity="0.8"/>
<circle cx="147" cy="231" r="1" fill="#F2F2F2" fill-opacity="0.8"/>
<circle cx="147" cy="245" r="1" fill="#F2F2F2" fill-opacity="0.8"/>
<circle cx="133" cy="231" r="1" fill="#F2F2F2" fill-opacity="0.8"/>
<circle cx="133" cy="245" r="1" fill="#F2F2F2" fill-opacity="0.8"/>
<circle cx="161" cy="217" r="1" fill="#F2F2F2" fill-opacity="0.8"/>
<circle cx="161" cy="231" r="1" fill="#F2F2F2" fill-opacity="0.8"/>
<circle cx="161" cy="245" r="1" fill="#F2F2F2" fill-opacity="0.8"/>
<circle cx="63" cy="217" r="1" fill="#F2F2F2" fill-opacity="0.8"/>
<circle cx="49" cy="217" r="1" fill="#F2F2F2" fill-opacity="0.8"/>
<circle cx="63" cy="231" r="1" fill="#F2F2F2" fill-opacity="0.8"/>
<circle cx="63" cy="245" r="1" fill="#F2F2F2" fill-opacity="0.8"/>
<circle cx="49" cy="231" r="1" fill="#F2F2F2" fill-opacity="0.8"/>
<circle cx="49" cy="245" r="1" fill="#F2F2F2" fill-opacity="0.8"/>
<circle cx="77" cy="217" r="1" fill="#F2F2F2" fill-opacity="0.8"/>
<circle cx="77" cy="231" r="1" fill="#F2F2F2" fill-opacity="0.8"/>
<circle cx="77" cy="245" r="1" fill="#F2F2F2" fill-opacity="0.8"/>
<circle cx="147" cy="301" r="1" fill="#F2F2F2" fill-opacity="0.8"/>
<circle cx="133" cy="301" r="1" fill="#F2F2F2" fill-opacity="0.8"/>
<circle cx="147" cy="315" r="1" fill="#F2F2F2" fill-opacity="0.8"/>
<circle cx="147" cy="329" r="1" fill="#F2F2F2" fill-opacity="0.8"/>
<circle cx="133" cy="315" r="1" fill="#F2F2F2" fill-opacity="0.8"/>
<circle cx="133" cy="329" r="1" fill="#F2F2F2" fill-opacity="0.8"/>
<circle cx="161" cy="301" r="1" fill="#F2F2F2" fill-opacity="0.8"/>
<circle cx="161" cy="315" r="1" fill="#F2F2F2" fill-opacity="0.8"/>
<circle cx="161" cy="329" r="1" fill="#F2F2F2" fill-opacity="0.8"/>
<circle cx="63" cy="301" r="1" fill="#F2F2F2" fill-opacity="0.8"/>
<circle cx="49" cy="301" r="1" fill="#F2F2F2" fill-opacity="0.8"/>
<circle cx="63" cy="315" r="1" fill="#F2F2F2" fill-opacity="0.8"/>
<circle cx="63" cy="329" r="1" fill="#F2F2F2" fill-opacity="0.8"/>
<circle cx="49" cy="315" r="1" fill="#F2F2F2" fill-opacity="0.8"/>
<circle cx="49" cy="329" r="1" fill="#F2F2F2" fill-opacity="0.8"/>
<circle cx="77" cy="301" r="1" fill="#F2F2F2" fill-opacity="0.8"/>
<circle cx="77" cy="315" r="1" fill="#F2F2F2" fill-opacity="0.8"/>
<circle cx="77" cy="329" r="1" fill="#F2F2F2" fill-opacity="0.8"/>
<circle cx="105" cy="175" r="1" fill="#F2F2F2" fill-opacity="0.8"/>
<circle cx="91" cy="175" r="1" fill="#F2F2F2" fill-opacity="0.8"/>
<circle cx="105" cy="189" r="1" fill="#F2F2F2" fill-opacity="0.8"/>
<circle cx="105" cy="203" r="1" fill="#F2F2F2" fill-opacity="0.8"/>
<circle cx="91" cy="189" r="1" fill="#F2F2F2" fill-opacity="0.8"/>
<circle cx="91" cy="203" r="1" fill="#F2F2F2" fill-opacity="0.8"/>
<circle cx="119" cy="175" r="1" fill="#F2F2F2" fill-opacity="0.8"/>
<circle cx="119" cy="189" r="1" fill="#F2F2F2" fill-opacity="0.8"/>
<circle cx="119" cy="203" r="1" fill="#F2F2F2" fill-opacity="0.8"/>
<circle cx="21" cy="175" r="1" fill="#F2F2F2" fill-opacity="0.8"/>
<circle cx="7" cy="175" r="1" fill="#F2F2F2" fill-opacity="0.8"/>
<circle cx="21" cy="189" r="1" fill="#F2F2F2" fill-opacity="0.8"/>
<circle cx="21" cy="203" r="1" fill="#F2F2F2" fill-opacity="0.8"/>
<circle cx="7" cy="189" r="1" fill="#F2F2F2" fill-opacity="0.8"/>
<circle cx="7" cy="203" r="1" fill="#F2F2F2" fill-opacity="0.8"/>
<circle cx="35" cy="175" r="1" fill="#F2F2F2" fill-opacity="0.8"/>
<circle cx="35" cy="189" r="1" fill="#F2F2F2" fill-opacity="0.8"/>
<circle cx="35" cy="203" r="1" fill="#F2F2F2" fill-opacity="0.8"/>
<circle cx="105" cy="259" r="1" fill="#F2F2F2" fill-opacity="0.8"/>
<circle cx="91" cy="259" r="1" fill="#F2F2F2" fill-opacity="0.8"/>
<circle cx="105" cy="273" r="1" fill="#F2F2F2" fill-opacity="0.8"/>
<circle cx="105" cy="287" r="1" fill="#F2F2F2" fill-opacity="0.8"/>
<circle cx="91" cy="273" r="1" fill="#F2F2F2" fill-opacity="0.8"/>
<circle cx="91" cy="287" r="1" fill="#F2F2F2" fill-opacity="0.8"/>
<circle cx="119" cy="259" r="1" fill="#F2F2F2" fill-opacity="0.8"/>
<circle cx="119" cy="273" r="1" fill="#F2F2F2" fill-opacity="0.8"/>
<circle cx="119" cy="287" r="1" fill="#F2F2F2" fill-opacity="0.8"/>
<circle cx="21" cy="259" r="1" fill="#F2F2F2" fill-opacity="0.8"/>
<circle cx="7" cy="259" r="1" fill="#F2F2F2" fill-opacity="0.8"/>
<circle cx="21" cy="273" r="1" fill="#F2F2F2" fill-opacity="0.8"/>
<circle cx="21" cy="287" r="1" fill="#F2F2F2" fill-opacity="0.8"/>
<circle cx="7" cy="273" r="1" fill="#F2F2F2" fill-opacity="0.8"/>
<circle cx="7" cy="287" r="1" fill="#F2F2F2" fill-opacity="0.8"/>
<circle cx="35" cy="259" r="1" fill="#F2F2F2" fill-opacity="0.8"/>
<circle cx="35" cy="273" r="1" fill="#F2F2F2" fill-opacity="0.8"/>
<circle cx="35" cy="287" r="1" fill="#F2F2F2" fill-opacity="0.8"/>
<circle cx="105" cy="217" r="1" fill="#F2F2F2" fill-opacity="0.8"/>
<circle cx="91" cy="217" r="1" fill="#F2F2F2" fill-opacity="0.8"/>
<circle cx="105" cy="231" r="1" fill="#F2F2F2" fill-opacity="0.8"/>
<circle cx="105" cy="245" r="1" fill="#F2F2F2" fill-opacity="0.8"/>
<circle cx="91" cy="231" r="1" fill="#F2F2F2" fill-opacity="0.8"/>
<circle cx="91" cy="245" r="1" fill="#F2F2F2" fill-opacity="0.8"/>
<circle cx="119" cy="217" r="1" fill="#F2F2F2" fill-opacity="0.8"/>
<circle cx="119" cy="231" r="1" fill="#F2F2F2" fill-opacity="0.8"/>
<circle cx="119" cy="245" r="1" fill="#F2F2F2" fill-opacity="0.8"/>
<circle cx="21" cy="217" r="1" fill="#F2F2F2" fill-opacity="0.8"/>
<circle cx="7" cy="217" r="1" fill="#F2F2F2" fill-opacity="0.8"/>
<circle cx="21" cy="231" r="1" fill="#F2F2F2" fill-opacity="0.8"/>
<circle cx="21" cy="245" r="1" fill="#F2F2F2" fill-opacity="0.8"/>
<circle cx="7" cy="231" r="1" fill="#F2F2F2" fill-opacity="0.8"/>
<circle cx="7" cy="245" r="1" fill="#F2F2F2" fill-opacity="0.8"/>
<circle cx="35" cy="217" r="1" fill="#F2F2F2" fill-opacity="0.8"/>
<circle cx="35" cy="231" r="1" fill="#F2F2F2" fill-opacity="0.8"/>
<circle cx="35" cy="245" r="1" fill="#F2F2F2" fill-opacity="0.8"/>
<circle cx="105" cy="301" r="1" fill="#F2F2F2" fill-opacity="0.8"/>
<circle cx="91" cy="301" r="1" fill="#F2F2F2" fill-opacity="0.8"/>
<circle cx="105" cy="315" r="1" fill="#F2F2F2" fill-opacity="0.8"/>
<circle cx="105" cy="329" r="1" fill="#F2F2F2" fill-opacity="0.8"/>
<circle cx="91" cy="315" r="1" fill="#F2F2F2" fill-opacity="0.8"/>
<circle cx="91" cy="329" r="1" fill="#F2F2F2" fill-opacity="0.8"/>
<circle cx="119" cy="301" r="1" fill="#F2F2F2" fill-opacity="0.8"/>
<circle cx="119" cy="315" r="1" fill="#F2F2F2" fill-opacity="0.8"/>
<circle cx="119" cy="329" r="1" fill="#F2F2F2" fill-opacity="0.8"/>
<circle cx="21" cy="301" r="1" fill="#F2F2F2" fill-opacity="0.8"/>
<circle cx="7" cy="301" r="1" fill="#F2F2F2" fill-opacity="0.8"/>
<circle cx="21" cy="315" r="1" fill="#F2F2F2" fill-opacity="0.8"/>
<circle cx="21" cy="329" r="1" fill="#F2F2F2" fill-opacity="0.8"/>
<circle cx="7" cy="315" r="1" fill="#F2F2F2" fill-opacity="0.8"/>
<circle cx="7" cy="329" r="1" fill="#F2F2F2" fill-opacity="0.8"/>
<circle cx="35" cy="301" r="1" fill="#F2F2F2" fill-opacity="0.8"/>
<circle cx="35" cy="315" r="1" fill="#F2F2F2" fill-opacity="0.8"/>
<circle cx="35" cy="329" r="1" fill="#F2F2F2" fill-opacity="0.8"/>
</svg>
